<?xml version="1.0" encoding="UTF-8" standalone="no"?>
<!DOCTYPE svg PUBLIC "-//W3C//DTD SVG 1.1//EN"
 "http://www.w3.org/Graphics/SVG/1.1/DTD/svg11.dtd">
<!-- Generated by graphviz version 2.44.1 (20200629.0846)
 -->
<!-- Title: g Pages: 1 -->
<svg width="2055pt" height="757pt"
     viewBox="0.00 0.00 2055.00 756.80" xmlns="http://www.w3.org/2000/svg">
<g id="graph0" class="graph" transform="scale(1 1) rotate(0) translate(4 752.8)">
<title>g</title>
<polygon fill="white" stroke="transparent" points="-4,4 -4,-752.8 2051,-752.8 2051,4 -4,4"/>
<g id="clust1" class="cluster">
<title>cluster_1068799382</title>
<polygon fill="#ececec" stroke="black" points="8,-8 8,-489.6 2039,-489.6 2039,-8 8,-8"/>
<text text-anchor="middle" x="36.22" y="-473" font-family="Times New Roman,serif" font-size="14.00">models</text>
</g>
<g id="clust3" class="cluster">
<title>cluster_905826493</title>
<polygon fill="#ececec" stroke="black" points="1134,-524.4 1134,-615.2 1242,-615.2 1242,-524.4 1134,-524.4"/>
<text text-anchor="middle" x="1159.1" y="-598.6" font-family="Times New Roman,serif" font-size="14.00">server</text>
</g>
<g id="clust2" class="cluster">
<title>cluster_2390489</title>
<polygon fill="#ececec" stroke="black" points="1114,-650 1114,-740.8 1262,-740.8 1262,-650 1114,-650"/>
<text text-anchor="middle" x="1136.77" y="-724.2" font-family="Times New Roman,serif" font-size="14.00">Main</text>
</g>
<!-- ExecutionAgent1068799382 -->
<g id="node1" class="node">
<title>ExecutionAgent1068799382</title>
<polygon fill="#ffffff" stroke="transparent" points="1027.5,-444.8 278.5,-444.8 278.5,-202.8 1027.5,-202.8 1027.5,-444.8"/>
<text text-anchor="start" x="284" y="-427.2" font-family="Times New Roman,serif" font-size="14.00">(C)ExecutionAgent</text>
<text text-anchor="start" x="284" y="-403.2" font-family="Times New Roman,serif" font-size="14.00">&#45; &#160;&#160;currentProcess: Process [0..1]</text>
<text text-anchor="start" x="284" y="-379.2" font-family="Times New Roman,serif" font-size="14.00">&#45; &#160;&#160;taskQueue: Queue&lt;Runnable&gt; [0..*]</text>
<text text-anchor="start" x="284" y="-355.2" font-family="Times New Roman,serif" font-size="14.00">&#45; ExecutionAgent()</text>
<text text-anchor="start" x="284" y="-331.2" font-family="Times New Roman,serif" font-size="14.00">+ cancelAllTasks()</text>
<text text-anchor="start" x="284" y="-307.2" font-family="Times New Roman,serif" font-size="14.00">&#45; execute()</text>
<text text-anchor="start" x="283.86" y="-283.2" font-family="Times New Roman,serif" font-size="14.00">+ executeLater(command: List&lt;String&gt;, workDirectory: File, afterExecution: Consumer&lt;Process&gt;, printOut: PrintStream): boolean</text>
<text text-anchor="start" x="284" y="-259.2" font-family="Times New Roman,serif" font-size="14.00">+ executeLater(command: String[], workDirectory: File, afterExecution: Consumer&lt;Process&gt;, printOut: PrintStream): boolean</text>
<text text-anchor="start" x="284" y="-235.2" font-family="Times New Roman,serif" font-size="14.00">+ getExecutionAgent(): ExecutionAgent</text>
<text text-anchor="start" x="284" y="-211.2" font-family="Times New Roman,serif" font-size="14.00">+ invokeExecution()</text>
<polygon fill="black" stroke="black" points="279,-419.8 279,-419.8 1028,-419.8 1028,-419.8 279,-419.8"/>
<polygon fill="black" stroke="black" points="279,-371.8 279,-371.8 1028,-371.8 1028,-371.8 279,-371.8"/>
<polygon fill="none" stroke="black" points="278.5,-202.8 278.5,-444.8 1027.5,-444.8 1027.5,-202.8 278.5,-202.8"/>
</g>
<!-- FileReceiver1068799382 -->
<g id="node2" class="node">
<title>FileReceiver1068799382</title>
<polygon fill="#ffffff" stroke="transparent" points="1172,-360.8 1046,-360.8 1046,-286.8 1172,-286.8 1172,-360.8"/>
<text text-anchor="start" x="1051" y="-343.2" font-family="Times New Roman,serif" font-size="14.00">(C)FileReceiver</text>
<text text-anchor="start" x="1051" y="-319.2" font-family="Times New Roman,serif" font-size="14.00">&#45; receive()</text>
<text text-anchor="start" x="1050.83" y="-295.2" font-family="Times New Roman,serif" font-size="14.00">+ startFileReceiver()</text>
<polygon fill="black" stroke="black" points="1046,-335.8 1046,-335.8 1172,-335.8 1172,-335.8 1046,-335.8"/>
<polygon fill="none" stroke="black" points="1046,-286.8 1046,-360.8 1172,-360.8 1172,-286.8 1046,-286.8"/>
</g>
<!-- FileUsage1068799382 -->
<g id="node3" class="node">
<title>FileUsage1068799382</title>
<polygon fill="#dcfbd5" stroke="transparent" points="1214.5,-138 1003.5,-138 1003.5,-16 1214.5,-16 1214.5,-138"/>
<text text-anchor="start" x="1009" y="-120.4" font-family="Times New Roman,serif" font-size="14.00">(E)FileUsage</text>
<text text-anchor="start" x="1009" y="-96.4" font-family="Times New Roman,serif" font-size="14.00">+ &#160;&#160;TO_INFER: FileUsage [1]</text>
<text text-anchor="start" x="1009" y="-72.4" font-family="Times New Roman,serif" font-size="14.00">+ &#160;&#160;TO_SLICE: FileUsage [1]</text>
<text text-anchor="start" x="1008.56" y="-48.4" font-family="Times New Roman,serif" font-size="14.00">+ valueOf(name: String): FileUsage</text>
<text text-anchor="start" x="1009" y="-24.4" font-family="Times New Roman,serif" font-size="14.00">+ values(): FileUsage[]</text>
<polygon fill="black" stroke="black" points="1004,-113 1004,-113 1215,-113 1215,-113 1004,-113"/>
<polygon fill="black" stroke="black" points="1004,-65 1004,-65 1215,-65 1215,-65 1004,-65"/>
<polygon fill="none" stroke="black" points="1003.5,-16 1003.5,-138 1214.5,-138 1214.5,-16 1003.5,-16"/>
</g>
<!-- FileReceiver1068799382&#45;&gt;FileUsage1068799382 -->
<g id="edge1" class="edge">
<title>FileReceiver1068799382&#45;&gt;FileUsage1068799382</title>
<path fill="none" stroke="black" d="M1109,-286.68C1109,-250.33 1109,-193.32 1109,-148.06"/>
<polygon fill="black" stroke="black" points="1112.5,-148.01 1109,-138.01 1105.5,-148.01 1112.5,-148.01"/>
<text text-anchor="middle" x="1170.85" y="-160.2" font-family="Times New Roman,serif" font-size="14.00">receive() &#45;&gt; valueOf()</text>
</g>
<!-- GPUStatusSender1068799382 -->
<g id="node4" class="node">
<title>GPUStatusSender1068799382</title>
<polygon fill="#ffffff" stroke="transparent" points="1345.5,-360.8 1190.5,-360.8 1190.5,-286.8 1345.5,-286.8 1345.5,-360.8"/>
<text text-anchor="start" x="1196" y="-343.2" font-family="Times New Roman,serif" font-size="14.00">(C)GPUStatusSender</text>
<text text-anchor="start" x="1196" y="-319.2" font-family="Times New Roman,serif" font-size="14.00">&#45; sendStatus()</text>
<text text-anchor="start" x="1195.55" y="-295.2" font-family="Times New Roman,serif" font-size="14.00">+ startGPUStatusSender()</text>
<polygon fill="black" stroke="black" points="1191,-335.8 1191,-335.8 1346,-335.8 1346,-335.8 1191,-335.8"/>
<polygon fill="none" stroke="black" points="1190.5,-286.8 1190.5,-360.8 1345.5,-360.8 1345.5,-286.8 1190.5,-286.8"/>
</g>
<!-- InstructionReceiver1068799382 -->
<g id="node5" class="node">
<title>InstructionReceiver1068799382</title>
<polygon fill="#ffffff" stroke="transparent" points="2030.5,-456.8 1363.5,-456.8 1363.5,-190.8 2030.5,-190.8 2030.5,-456.8"/>
<text text-anchor="start" x="1369" y="-439.2" font-family="Times New Roman,serif" font-size="14.00">(C)InstructionReceiver</text>
<text text-anchor="start" x="1369" y="-415.2" font-family="Times New Roman,serif" font-size="14.00">&#45; buildTerminationErrorMessage(process: Process, executable: File): String</text>
<text text-anchor="start" x="1369" y="-391.2" font-family="Times New Roman,serif" font-size="14.00">&#45; getConfigJsonObject(): JSONObject</text>
<text text-anchor="start" x="1369" y="-367.2" font-family="Times New Roman,serif" font-size="14.00">&#45; receive()</text>
<text text-anchor="start" x="1369" y="-343.2" font-family="Times New Roman,serif" font-size="14.00">&#45; scheduleGenerateHubertAndF0(f0Predictor: String, instructionSocket: Socket)</text>
<text text-anchor="start" x="1369" y="-319.2" font-family="Times New Roman,serif" font-size="14.00">&#45; scheduleRemoveDirectory(directory: File, instructionSocket: Socket)</text>
<text text-anchor="start" x="1369" y="-295.2" font-family="Times New Roman,serif" font-size="14.00">&#45; scheduleRemoveSubDirectories(directory: File, instructionSocket: Socket)</text>
<text text-anchor="start" x="1369" y="-271.2" font-family="Times New Roman,serif" font-size="14.00">&#45; scheduleResampleAudio(instructionSocket: Socket)</text>
<text text-anchor="start" x="1368.97" y="-247.2" font-family="Times New Roman,serif" font-size="14.00">&#45; scheduleSplitDatasetAndGenerateConfig(encoder: String, loudnessEmbedding: boolean, instructionSocket: Socket)</text>
<text text-anchor="start" x="1369" y="-223.2" font-family="Times New Roman,serif" font-size="14.00">&#45; scheduleTraining(gpuId: int, instructionSocket: Socket)</text>
<text text-anchor="start" x="1369" y="-199.2" font-family="Times New Roman,serif" font-size="14.00">+ startInstructionReceiver(port: int): int</text>
<polygon fill="black" stroke="black" points="1364,-431.8 1364,-431.8 2031,-431.8 2031,-431.8 1364,-431.8"/>
<polygon fill="none" stroke="black" points="1363.5,-190.8 1363.5,-456.8 2030.5,-456.8 2030.5,-190.8 1363.5,-190.8"/>
</g>
<!-- InstructionType1068799382 -->
<g id="node6" class="node">
<title>InstructionType1068799382</title>
<polygon fill="#dcfbd5" stroke="transparent" points="260,-456.8 16,-456.8 16,-190.8 260,-190.8 260,-456.8"/>
<text text-anchor="start" x="21" y="-439.2" font-family="Times New Roman,serif" font-size="14.00">(E)InstructionType</text>
<text text-anchor="start" x="21" y="-415.2" font-family="Times New Roman,serif" font-size="14.00">+ &#160;&#160;ABORT: InstructionType [1]</text>
<text text-anchor="start" x="21" y="-391.2" font-family="Times New Roman,serif" font-size="14.00">+ &#160;&#160;CLEAR: InstructionType [1]</text>
<text text-anchor="start" x="21" y="-367.2" font-family="Times New Roman,serif" font-size="14.00">+ &#160;&#160;GET_CONF: InstructionType [1]</text>
<text text-anchor="start" x="21" y="-343.2" font-family="Times New Roman,serif" font-size="14.00">+ &#160;&#160;GET_RESULTS: InstructionType [1]</text>
<text text-anchor="start" x="21" y="-319.2" font-family="Times New Roman,serif" font-size="14.00">+ &#160;&#160;INFER: InstructionType [1]</text>
<text text-anchor="start" x="21" y="-295.2" font-family="Times New Roman,serif" font-size="14.00">+ &#160;&#160;PREPROCESS: InstructionType [1]</text>
<text text-anchor="start" x="21" y="-271.2" font-family="Times New Roman,serif" font-size="14.00">+ &#160;&#160;SLICE: InstructionType [1]</text>
<text text-anchor="start" x="21" y="-247.2" font-family="Times New Roman,serif" font-size="14.00">+ &#160;&#160;TRAIN: InstructionType [1]</text>
<text text-anchor="start" x="20.73" y="-223.2" font-family="Times New Roman,serif" font-size="14.00">+ valueOf(name: String): InstructionType</text>
<text text-anchor="start" x="21" y="-199.2" font-family="Times New Roman,serif" font-size="14.00">+ values(): InstructionType[]</text>
<polygon fill="black" stroke="black" points="16,-431.8 16,-431.8 260,-431.8 260,-431.8 16,-431.8"/>
<polygon fill="black" stroke="black" points="16,-239.8 16,-239.8 260,-239.8 260,-239.8 16,-239.8"/>
<polygon fill="none" stroke="black" points="16,-190.8 16,-456.8 260,-456.8 260,-190.8 16,-190.8"/>
</g>
<!-- Main2390489 -->
<g id="node7" class="node">
<title>Main2390489</title>
<polygon fill="#ffffff" stroke="transparent" points="1254,-708 1122,-708 1122,-658 1254,-658 1254,-708"/>
<text text-anchor="start" x="1127" y="-690.4" font-family="Times New Roman,serif" font-size="14.00">(C)Main</text>
<text text-anchor="start" x="1126.52" y="-666.4" font-family="Times New Roman,serif" font-size="14.00">+ main(args: String[])</text>
<polygon fill="black" stroke="black" points="1122,-683 1122,-683 1254,-683 1254,-683 1122,-683"/>
<polygon fill="none" stroke="black" points="1122,-658 1122,-708 1254,-708 1254,-658 1122,-658"/>
</g>
<!-- Server905826493 -->
<g id="node8" class="node">
<title>Server905826493</title>
<polygon fill="#ffffff" stroke="transparent" points="1233.5,-582.4 1142.5,-582.4 1142.5,-532.4 1233.5,-532.4 1233.5,-582.4"/>
<text text-anchor="start" x="1148" y="-564.8" font-family="Times New Roman,serif" font-size="14.00">(C)Server</text>
<text text-anchor="start" x="1147.83" y="-540.8" font-family="Times New Roman,serif" font-size="14.00">+ startServer()</text>
<polygon fill="black" stroke="black" points="1143,-557.4 1143,-557.4 1234,-557.4 1234,-557.4 1143,-557.4"/>
<polygon fill="none" stroke="black" points="1142.5,-532.4 1142.5,-582.4 1233.5,-582.4 1233.5,-532.4 1142.5,-532.4"/>
</g>
<!-- Main2390489&#45;&gt;Server905826493 -->
<g id="edge2" class="edge">
<title>Main2390489&#45;&gt;Server905826493</title>
<path fill="none" stroke="black" d="M1188,-657.88C1188,-639.24 1188,-613.23 1188,-592.47"/>
<polygon fill="black" stroke="black" points="1191.5,-592.46 1188,-582.46 1184.5,-592.46 1191.5,-592.46"/>
<text text-anchor="middle" x="1251.41" y="-627.4" font-family="Times New Roman,serif" font-size="14.00">main() &#45;&gt; startServer()</text>
</g>
<!-- Server905826493&#45;&gt;ExecutionAgent1068799382 -->
<g id="edge3" class="edge">
<title>Server905826493&#45;&gt;ExecutionAgent1068799382</title>
<path fill="none" stroke="black" d="M1142.23,-549.93C1058.88,-538.15 890.88,-514.4 890.88,-514.4 890.88,-514.4 855.26,-486.01 811.6,-451.21"/>
<polygon fill="black" stroke="black" points="813.65,-448.37 803.65,-444.88 809.29,-453.85 813.65,-448.37"/>
<text text-anchor="middle" x="982.56" y="-501.8" font-family="Times New Roman,serif" font-size="14.00">startServer() &#45;&gt; cancelAllTasks()</text>
</g>
<!-- Server905826493&#45;&gt;FileReceiver1068799382 -->
<g id="edge4" class="edge">
<title>Server905826493&#45;&gt;FileReceiver1068799382</title>
<path fill="none" stroke="black" d="M1142.43,-538.59C1113.14,-527.14 1080.54,-514.4 1080.54,-514.4 1080.54,-514.4 1080.54,-497.6 1080.54,-497.6 1080.54,-497.6 1092.98,-422.1 1101.41,-370.91"/>
<polygon fill="black" stroke="black" points="1104.86,-371.46 1103.03,-361.02 1097.96,-370.32 1104.86,-371.46"/>
<text text-anchor="middle" x="1177.23" y="-501.8" font-family="Times New Roman,serif" font-size="14.00">startServer() &#45;&gt; startFileReceiver()</text>
</g>
<!-- Server905826493&#45;&gt;GPUStatusSender1068799382 -->
<g id="edge5" class="edge">
<title>Server905826493&#45;&gt;GPUStatusSender1068799382</title>
<path fill="none" stroke="black" d="M1233.54,-534.42C1254.59,-524.25 1275,-514.4 1275,-514.4 1275,-514.4 1275,-497.6 1275,-497.6 1275,-497.6 1271.95,-422.41 1269.88,-371.23"/>
<polygon fill="black" stroke="black" points="1273.37,-370.87 1269.47,-361.02 1266.38,-371.16 1273.37,-370.87"/>
<text text-anchor="middle" x="1387.01" y="-501.8" font-family="Times New Roman,serif" font-size="14.00">startServer() &#45;&gt; startGPUStatusSender()</text>
</g>
<!-- Server905826493&#45;&gt;InstructionReceiver1068799382 -->
<g id="edge6" class="edge">
<title>Server905826493&#45;&gt;InstructionReceiver1068799382</title>
<path fill="none" stroke="black" d="M1233.8,-550.29C1321.17,-538.64 1503,-514.4 1503,-514.4 1503,-514.4 1525.18,-492.72 1554.54,-464.03"/>
<polygon fill="black" stroke="black" points="1557.03,-466.49 1561.73,-457 1552.13,-461.49 1557.03,-466.49"/>
<text text-anchor="middle" x="1635.67" y="-501.8" font-family="Times New Roman,serif" font-size="14.00">startServer() &#45;&gt; startInstructionReceiver()</text>
</g>
</g>
</svg>
